<svg xmlns="http://www.w3.org/2000/svg" xmlns:xlink="http://www.w3.org/1999/xlink" width="926pt" height="244" viewBox="0 0 926 183"><g id="graph0" class="graph" data-name="G" transform="translate(4,179) scale(1)"><polygon fill="#fff" stroke="transparent" points="-4 4 -4 -179 922 -179 922 4 -4 4"/><g id="clust1" class="cluster"><title>cluster_11</title><polygon fill="none" stroke="transparent" points="8 -13 8 -162 336 -162 336 -13 8 -13"/><text x="60.344" y="-129.4" fill="#4d4d4d" font-family="Helvetica,sans-Serif" font-size="14" text-anchor="middle">Python Server</text></g><g id="clust2" class="cluster"><title>cluster_thread_2</title><polygon fill="#91a4a8" stroke="transparent" points="18 -23 18 -111 326 -111 326 -23 18 -23"/><text x="96.292" y="-86" fill="#edebdf" font-family="Helvetica,sans-Serif" font-size="10" text-anchor="middle">PerspectiveManager - Thread 2</text></g><g id="clust3" class="cluster"><title>cluster_browser</title><polygon fill="#cadee1" stroke="#cadee1" points="344 -8 344 -167 910 -167 910 -8 344 -8"/><text x="377.665" y="-134.4" fill="#4d4d4d" font-family="Helvetica,sans-Serif" font-size="14" text-anchor="middle">Browser</text></g><g id="clust4" class="cluster"><title>cluster_webworker2</title><polygon fill="#2d4c68" stroke="transparent" points="354 -18 354 -116 662 -116 662 -18 354 -18"/><text x="392.555" y="-91" fill="#edebdf" font-family="Helvetica,sans-Serif" font-size="10" text-anchor="middle">WebWorker 2</text></g><g id="clust6" class="cluster"><title>cluster_41</title><polygon fill="#fff" stroke="transparent" points="678 -18 678 -111 900 -111 900 -18 678 -18"/><text x="697.846" y="-90.8" fill="#4d4d4d" font-family="monospace" font-size="8" text-anchor="middle">&amp;#60;html&amp;#62;</text></g><g id="node1" class="node" data-name="table_thread_2"><polygon fill="#e6e2da" stroke="transparent" points="100 -69 28 -69 28 -33 100 -33 100 -69"/><text x="64" y="-48.6" fill="#000" font-family="monospace" font-size="8" text-anchor="middle">table(df)</text></g><g id="node2" class="node" data-name="view_thread_2"><polygon fill="#edebdf" stroke="transparent" points="316 -69.3 136 -69.3 136 -32.7 316 -32.7 316 -69.3"/><text x="144" y="-58.2" fill="#000" font-family="monospace" font-size="8" text-anchor="start">view({</text><text x="144" y="-48.6" fill="#000" font-family="monospace" font-size="8" text-anchor="start">&amp;#160;&amp;#160;&amp;#160;row_pivot: [&quot;State&quot;]]</text><text x="144" y="-39" fill="#000" font-family="monospace" font-size="8" text-anchor="start">})</text></g><g id="edge1" class="edge" data-name="table_thread_2-&gt;view_thread_2"><path fill="none" stroke="#edebdf" d="M100.356,-51C108.7372,-51 118.0459,-51 127.6984,-51"/><polygon fill="#edebdf" stroke="#edebdf" points="127.875 -53.8 135.875 -51 127.874 -48.2 127.875 -53.8"/></g><g id="node3" class="node" data-name="table12"><polygon fill="#e6e2da" stroke="transparent" points="436 -69 364 -69 364 -33 436 -33 436 -69"/><text x="400" y="-48.6" fill="#000" font-family="monospace" font-size="8" text-anchor="middle">table(...)</text></g><g id="edge3" class="edge" data-name="view_thread_2-&gt;table12"><path fill="none" stroke="#d1a043" stroke-dasharray="5 2" stroke-width="2" d="M316.058,-51C332.9745,-51 349.7367,-51 363.782,-51"/></g><g id="node4" class="node" data-comment="view_thread_1" data-name="view12"><polygon fill="#edebdf" stroke="transparent" points="652 -74.402 472 -74.402 472 -27.598 652 -27.598 652 -74.402"/><text x="480" y="-63" fill="#000" font-family="monospace" font-size="8" text-anchor="start">view({</text><text x="480" y="-53.4" fill="#000" font-family="monospace" font-size="8" text-anchor="start">&amp;#160;&amp;#160;&amp;#160;row_pivot: [&quot;Category&quot;]</text><text x="480" y="-43.8" fill="#000" font-family="monospace" font-size="8" text-anchor="start">&amp;#160;&amp;#160;&amp;#160;filter: [[&quot;State&quot;,&quot;==&quot;,&quot;Texas&quot;]]</text><text x="480" y="-34.2" fill="#000" font-family="monospace" font-size="8" text-anchor="start">})</text></g><g id="edge2" class="edge" data-comment="view_thread_1" data-name="table12-&gt;view12"><path fill="none" stroke="#e6e2da" d="M436.356,-51C444.7372,-51 454.0459,-51 463.6984,-51"/><polygon fill="#e6e2da" stroke="#e6e2da" points="463.875 -53.8 471.875 -51 463.875 -48.2 463.875 -53.8"/></g><g id="node5" class="node" data-comment="view_thread_1" data-name="viewer5"><polygon fill="#fff" stroke="#b3b3b3" points="890 -74.402 688 -74.402 688 -27.598 890 -27.598 890 -74.402"/><text x="696" y="-63" fill="#000" font-family="monospace" font-size="8" text-anchor="start">&amp;#60;perspective-viewer</text><text x="696" y="-53.4" fill="#000" font-family="monospace" font-size="8" text-anchor="start">&amp;#160;&amp;#160;&amp;#160;view=&quot;heatmap&quot;</text><text x="696" y="-43.8" fill="#000" font-family="monospace" font-size="8" text-anchor="start">&amp;#160;&amp;#160;&amp;#160;row-pivots=&apos;[&quot;State&quot;]</text><text x="696" y="-34.2" fill="#000" font-family="monospace" font-size="8" text-anchor="start">&amp;#160;&amp;#160;&amp;#160;column-pivots=&apos;[&quot;Segment&quot;]&apos;&amp;#62;</text></g><g id="edge4" class="edge" data-comment="view_thread_1" data-name="view12-&gt;viewer5"><path fill="none" stroke="#000" stroke-dasharray="5 2" stroke-width="2" d="M652.0424,-51C663.8018,-51 675.9125,-51 687.8393,-51"/></g></g></svg>