<svg xmlns="http://www.w3.org/2000/svg" xmlns:xlink="http://www.w3.org/1999/xlink" width="590pt" height="173pt" viewBox="0 0 590 173"><g id="graph0" class="graph" data-name="G" transform="translate(4,169) scale(1)"><polygon fill="#fff" stroke="transparent" points="-4 4 -4 -169 586 -169 586 4 -4 4"/><g id="clust1" class="cluster"><title>cluster_browser</title><polygon fill="#cadee1" stroke="#cadee1" points="8 -8 8 -157 574 -157 574 -8 8 -8"/><text x="41.665" y="-124.4" fill="#4d4d4d" font-family="Helvetica,sans-Serif" font-size="14" text-anchor="middle">Browser</text></g><g id="clust2" class="cluster"><title>cluster_2</title><polygon fill="#2d4c68" stroke="transparent" points="18 -18 18 -106 326 -106 326 -18 18 -18"/><text x="56.555" y="-81" fill="#edebdf" font-family="Helvetica,sans-Serif" font-size="10" text-anchor="middle">WebWorker 1</text></g><g id="clust4" class="cluster"><title>cluster_41</title><polygon fill="#fff" stroke="transparent" points="342 -18 342 -101 564 -101 564 -18 342 -18"/><text x="361.846" y="-80.8" fill="#4d4d4d" font-family="monospace" font-size="8" text-anchor="middle">&amp;#60;html&amp;#62;</text></g><g id="edge1" class="edge" data-comment="table_thread_2-&gt;view_thread_2" data-name="table1-&gt;view2"><path fill="none" stroke="#edebdf" d="M100.356,-46C108.7372,-46 118.0459,-46 127.6984,-46"/><polygon fill="#edebdf" stroke="#edebdf" points="127.875 -48.8 135.875 -46 127.874 -43.2 127.875 -48.8"/></g><g id="edge2" class="edge" data-comment="table_thread_2-&gt;view_thread_2_2" data-name="view2-&gt;viewer2"><path fill="none" stroke="#000" stroke-dasharray="5 2" stroke-width="2" d="M316.0424,-46C327.8018,-46 339.9125,-46 351.8393,-46"/></g><g id="node1" class="node" data-comment="table_thread_2-&gt;view_thread_2_2" data-name="table1"><polygon fill="#e6e2da" stroke="transparent" points="100 -64 28 -64 28 -28 100 -28 100 -64"/><text x="64" y="-43.6" fill="#000" font-family="monospace" font-size="8" text-anchor="middle">table(csv)</text></g><g id="node2" class="node" data-comment="table_thread_2-&gt;view_thread_2_2" data-name="view2"><polygon fill="#edebdf" stroke="transparent" points="316 -64.3 136 -64.3 136 -27.7 316 -27.7 316 -64.3"/><text x="144" y="-53.2" fill="#000" font-family="monospace" font-size="8" text-anchor="start">view({</text><text x="144" y="-43.6" fill="#000" font-family="monospace" font-size="8" text-anchor="start">&amp;#160;&amp;#160;&amp;#160;row_pivot: [&quot;Sub-Category&quot;]</text><text x="144" y="-34" fill="#000" font-family="monospace" font-size="8" text-anchor="start">})</text></g><g id="node3" class="node" data-comment="table_thread_2-&gt;view_thread_2_2" data-name="viewer2"><polygon fill="#fff" stroke="#d3d3d3" points="554 -64.3 352 -64.3 352 -27.7 554 -27.7 554 -64.3"/><text x="360" y="-53.2" fill="#000" font-family="monospace" font-size="8" text-anchor="start">&amp;#60;perspective-viewer</text><text x="360" y="-43.6" fill="#000" font-family="monospace" font-size="8" text-anchor="start">&amp;#160;&amp;#160;&amp;#160;view=&quot;xy_scatter&quot;</text><text x="360" y="-34" fill="#000" font-family="monospace" font-size="8" text-anchor="start">&amp;#160;&amp;#160;&amp;#160;row-pivots=&apos;[&quot;Sub-Category&quot;]&apos;&amp;#62;</text></g></g></svg>