<svg xmlns="http://www.w3.org/2000/svg" xmlns:xlink="http://www.w3.org/1999/xlink" width="926pt" height="509pt" viewBox="0 0 926 509"><g id="graph0" class="graph" data-name="G" transform="translate(4,505) scale(1)"><polygon fill="#fff" stroke="transparent" points="-4 4 -4 -505 922 -505 922 4 -4 4"/><g id="clust1" class="cluster"><title>cluster_11</title><polygon fill="none" stroke="transparent" points="8 -9 8 -321 336 -321 336 -9 8 -9"/><text x="60.344" y="-288.4" fill="#4d4d4d" font-family="Helvetica,sans-Serif" font-size="14" text-anchor="middle">Python Server</text></g><g id="clust2" class="cluster"><title>cluster_thread_2</title><polygon fill="#91a4a8" stroke="transparent" points="18 -127 18 -270 326 -270 326 -127 18 -127"/><text x="96.292" y="-245" fill="#edebdf" font-family="Helvetica,sans-Serif" font-size="10" text-anchor="middle">PerspectiveManager - Thread 2</text></g><g id="clust3" class="cluster"><title>cluster_thread_1</title><polygon fill="#91a4a8" stroke="transparent" points="18 -19 18 -117 326 -117 326 -19 18 -19"/><text x="96.292" y="-92" fill="#edebdf" font-family="Helvetica,sans-Serif" font-size="10" text-anchor="middle">PerspectiveManager - Thread 1</text></g><g id="clust4" class="cluster"><title>cluster_browser</title><polygon fill="#cadee1" stroke="#cadee1" points="344 -8 344 -493 910 -493 910 -8 344 -8"/><text x="377.665" y="-460.4" fill="#4d4d4d" font-family="Helvetica,sans-Serif" font-size="14" text-anchor="middle">Browser</text></g><g id="clust5" class="cluster"><title>cluster_2</title><polygon fill="#2d4c68" stroke="transparent" points="354 -235 354 -442 662 -442 662 -235 354 -235"/><text x="392.555" y="-417" fill="#edebdf" font-family="Helvetica,sans-Serif" font-size="10" text-anchor="middle">WebWorker 1</text></g><g id="clust7" class="cluster"><title>cluster_webworker2</title><polygon fill="#2d4c68" stroke="transparent" points="354 -122 354 -220 662 -220 662 -122 354 -122"/><text x="392.555" y="-195" fill="#edebdf" font-family="Helvetica,sans-Serif" font-size="10" text-anchor="middle">WebWorker 2</text></g><g id="clust9" class="cluster"><title>cluster_41</title><polygon fill="#fff" stroke="transparent" points="678 -18 678 -442 900 -442 900 -18 678 -18"/><text x="697.846" y="-421.8" fill="#4d4d4d" font-family="monospace" font-size="8" text-anchor="middle">&amp;#60;html&amp;#62;</text></g><g id="node1" class="node" data-name="table_thread_2"><polygon fill="#e6e2da" stroke="transparent" points="100 -200 28 -200 28 -164 100 -164 100 -200"/><text x="64" y="-179.6" fill="#000" font-family="monospace" font-size="8" text-anchor="middle">table(df)</text></g><g id="node2" class="node" data-name="view_thread_2"><polygon fill="#edebdf" stroke="transparent" points="316 -173.3 136 -173.3 136 -136.7 316 -136.7 316 -173.3"/><text x="144" y="-162.2" fill="#000" font-family="monospace" font-size="8" text-anchor="start">view({</text><text x="144" y="-152.6" fill="#000" font-family="monospace" font-size="8" text-anchor="start">&amp;#160;&amp;#160;&amp;#160;row_pivot: [&quot;State&quot;]]</text><text x="144" y="-143" fill="#000" font-family="monospace" font-size="8" text-anchor="start">})</text></g><g id="edge2" class="edge" data-name="table_thread_2-&gt;view_thread_2"><path fill="none" stroke="#edebdf" d="M100.356,-175.9407C108.7372,-174.5438 118.0459,-172.9924 127.6984,-171.3836"/><polygon fill="#edebdf" stroke="#edebdf" points="128.444 -174.098 135.875 -170.021 127.523 -168.574 128.444 -174.098"/></g><g id="node3" class="node" data-name="view_thread_2_2"><polygon fill="#edebdf" stroke="transparent" points="316 -228.3 136 -228.3 136 -191.7 316 -191.7 316 -228.3"/><text x="144" y="-217.2" fill="#000" font-family="monospace" font-size="8" text-anchor="start">view({</text><text x="144" y="-207.6" fill="#000" font-family="monospace" font-size="8" text-anchor="start">&amp;#160;&amp;#160;&amp;#160;row_pivot: [&quot;City&quot;]]</text><text x="144" y="-198" fill="#000" font-family="monospace" font-size="8" text-anchor="start">})</text></g><g id="edge1" class="edge" data-name="table_thread_2-&gt;view_thread_2_2"><path fill="none" stroke="#edebdf" d="M100.356,-188.2837C108.821,-189.7468 118.2321,-191.3735 127.9881,-193.0597"/><polygon fill="#edebdf" stroke="#edebdf" points="127.514 -195.819 135.875 -194.423 128.468 -190.301 127.514 -195.819"/></g><g id="node11" class="node" data-name="table12"><polygon fill="#e6e2da" stroke="transparent" points="436 -173 364 -173 364 -137 436 -137 436 -173"/><text x="400" y="-152.6" fill="#000" font-family="monospace" font-size="8" text-anchor="middle">table(...)</text></g><g id="edge8" class="edge" data-name="view_thread_2-&gt;table12"><path fill="none" stroke="#d1a043" stroke-dasharray="5 2" stroke-width="2" d="M316.058,-155C332.9745,-155 349.7367,-155 363.782,-155"/></g><g id="node4" class="node" data-name="table_thread_1"><polygon fill="#e6e2da" stroke="transparent" points="100 -70 28 -70 28 -34 100 -34 100 -70"/><text x="64" y="-49.6" fill="#000" font-family="monospace" font-size="8" text-anchor="middle">table(arrow)</text></g><g id="node5" class="node" data-name="view_thread_1"><polygon fill="#edebdf" stroke="transparent" points="316 -75.402 136 -75.402 136 -28.598 316 -28.598 316 -75.402"/><text x="144" y="-64" fill="#000" font-family="monospace" font-size="8" text-anchor="start">view({</text><text x="144" y="-54.4" fill="#000" font-family="monospace" font-size="8" text-anchor="start">&amp;#160;&amp;#160;&amp;#160;row_pivots:&apos;[&quot;State&quot;]</text><text x="144" y="-44.8" fill="#000" font-family="monospace" font-size="8" text-anchor="start">&amp;#160;&amp;#160;&amp;#160;column_pivots:&apos;[&quot;Segment&quot;]&apos;</text><text x="144" y="-35.2" fill="#000" font-family="monospace" font-size="8" text-anchor="start">})</text></g><g id="edge3" class="edge" data-name="table_thread_1-&gt;view_thread_1"><path fill="none" stroke="#edebdf" d="M100.356,-52C108.7372,-52 118.0459,-52 127.6984,-52"/><polygon fill="#edebdf" stroke="#edebdf" points="127.875 -54.8 135.875 -52 127.874 -49.2 127.875 -54.8"/></g><g id="node19" class="node" data-name="viewer4"><polygon fill="#fff" stroke="#b3b3b3" points="890 -74.402 688 -74.402 688 -27.598 890 -27.598 890 -74.402"/><text x="696" y="-63" fill="#000" font-family="monospace" font-size="8" text-anchor="start">&amp;#60;perspective-viewer</text><text x="696" y="-53.4" fill="#000" font-family="monospace" font-size="8" text-anchor="start">&amp;#160;&amp;#160;&amp;#160;view=&quot;heatmap&quot;</text><text x="696" y="-43.8" fill="#000" font-family="monospace" font-size="8" text-anchor="start">&amp;#160;&amp;#160;&amp;#160;row-pivots=&apos;[&quot;State&quot;]</text><text x="696" y="-34.2" fill="#000" font-family="monospace" font-size="8" text-anchor="start">&amp;#160;&amp;#160;&amp;#160;column-pivots=&apos;[&quot;Segment&quot;]&apos;&amp;#62;</text></g><g id="edge12" class="edge" data-name="view_thread_1-&gt;viewer4"><path fill="none" stroke="#d1a043" stroke-dasharray="5 2" stroke-width="2" d="M316.1434,-51.8399C417.5682,-51.6597 581.9264,-51.3678 687.7084,-51.1799"/></g><g id="node6" class="node" data-name="table1"><polygon fill="#e6e2da" stroke="transparent" points="436 -370 364 -370 364 -334 436 -334 436 -370"/><text x="400" y="-349.6" fill="#000" font-family="monospace" font-size="8" text-anchor="middle">table(csv)</text></g><g id="node8" class="node" data-name="view1"><polygon fill="#edebdf" stroke="transparent" points="652 -345.402 472 -345.402 472 -298.598 652 -298.598 652 -345.402"/><text x="480" y="-334" fill="#000" font-family="monospace" font-size="8" text-anchor="start">view({</text><text x="480" y="-324.4" fill="#000" font-family="monospace" font-size="8" text-anchor="start">&amp;#160;&amp;#160;&amp;#160;row_pivot: [&quot;Category&quot;]</text><text x="480" y="-314.8" fill="#000" font-family="monospace" font-size="8" text-anchor="start">&amp;#160;&amp;#160;&amp;#160;filter: [[&quot;State&quot;,&quot;==&quot;,&quot;Texas&quot;]]</text><text x="480" y="-305.2" fill="#000" font-family="monospace" font-size="8" text-anchor="start">})</text></g><g id="edge4" class="edge" data-name="table1-&gt;view1"><path fill="none" stroke="#edebdf" d="M436.356,-345.2674C444.821,-343.6998 454.2321,-341.957 463.9881,-340.1504"/><polygon fill="#edebdf" stroke="#edebdf" points="464.518 -342.9 471.875 -338.69 463.498 -337.394 464.518 -342.9"/></g><g id="node9" class="node" data-name="view2"><polygon fill="#edebdf" stroke="transparent" points="652 -400.3 472 -400.3 472 -363.7 652 -363.7 652 -400.3"/><text x="480" y="-389.2" fill="#000" font-family="monospace" font-size="8" text-anchor="start">view({</text><text x="480" y="-379.6" fill="#000" font-family="monospace" font-size="8" text-anchor="start">&amp;#160;&amp;#160;&amp;#160;row_pivot: [&quot;Sub-Category&quot;]</text><text x="480" y="-370" fill="#000" font-family="monospace" font-size="8" text-anchor="start">})</text></g><g id="edge5" class="edge" data-name="table1-&gt;view2"><path fill="none" stroke="#edebdf" d="M436.356,-358.7326C444.821,-360.3002 454.2321,-362.043 463.9881,-363.8496"/><polygon fill="#edebdf" stroke="#edebdf" points="463.498 -366.606 471.875 -365.31 464.518 -361.1 463.498 -366.606"/></g><g id="node7" class="node" data-name="table_remote_view"><polygon fill="#e6e2da" stroke="transparent" points="436 -281 364 -281 364 -245 436 -245 436 -281"/><text x="400" y="-260.6" fill="#000" font-family="monospace" font-size="8" text-anchor="middle">table(json)</text></g><g id="node10" class="node" data-name="view3"><polygon fill="#edebdf" stroke="transparent" points="652 -281 472 -281 472 -245 652 -245 652 -281"/><text x="480" y="-260.6" fill="#000" font-family="monospace" font-size="8" text-anchor="start">view()</text></g><g id="edge6" class="edge" data-name="table_remote_view-&gt;view3"><path fill="none" stroke="#edebdf" d="M436.356,-263C444.7372,-263 454.0459,-263 463.6984,-263"/><polygon fill="#edebdf" stroke="#edebdf" points="463.875 -265.8 471.875 -263 463.875 -260.2 463.875 -265.8"/></g><g id="node13" class="node" data-name="viewer1"><polygon fill="#fff" stroke="#b3b3b3" points="890 -350.402 688 -350.402 688 -303.598 890 -303.598 890 -350.402"/><text x="696" y="-339" fill="#000" font-family="monospace" font-size="8" text-anchor="start">&amp;#60;perspective-viewer</text><text x="696" y="-329.4" fill="#000" font-family="monospace" font-size="8" text-anchor="start">&amp;#160;&amp;#160;&amp;#160;view=&quot;Y Bar&quot;</text><text x="696" y="-319.8" fill="#000" font-family="monospace" font-size="8" text-anchor="start">&amp;#160;&amp;#160;&amp;#160;row-pivots=&apos;[&quot;Category&quot;]&apos;</text><text x="696" y="-310.2" fill="#000" font-family="monospace" font-size="8" text-anchor="start">&amp;#160;&amp;#160;&amp;#160;filters=&apos;[[&quot;State&quot;,&quot;==&quot;,&quot;Texas&quot;]]&apos;&amp;#62;</text></g><g id="edge9" class="edge" data-name="view1-&gt;viewer1"><path fill="none" stroke="#000" stroke-dasharray="5 2" stroke-width="2" d="M652.0424,-323.9833C663.8018,-324.2423 675.9125,-324.5091 687.8393,-324.7718"/></g><g id="node14" class="node" data-name="viewer2"><polygon fill="#fff" stroke="#d3d3d3" points="890 -405.3 688 -405.3 688 -368.7 890 -368.7 890 -405.3"/><text x="696" y="-394.2" fill="#000" font-family="monospace" font-size="8" text-anchor="start">&amp;#60;perspective-viewer</text><text x="696" y="-384.6" fill="#000" font-family="monospace" font-size="8" text-anchor="start">&amp;#160;&amp;#160;&amp;#160;view=&quot;xy_scatter&quot;</text><text x="696" y="-375" fill="#000" font-family="monospace" font-size="8" text-anchor="start">&amp;#160;&amp;#160;&amp;#160;row-pivots=&apos;[&quot;Sub-Category&quot;]&apos;&amp;#62;</text></g><g id="edge10" class="edge" data-name="view2-&gt;viewer2"><path fill="none" stroke="#000" stroke-dasharray="5 2" stroke-width="2" d="M652.0424,-383.9833C663.8018,-384.2423 675.9125,-384.5091 687.8393,-384.7718"/></g><g id="node15" class="node" data-name="viewer3"><polygon fill="#fff" stroke="#b3b3b3" points="890 -286 688 -286 688 -250 890 -250 890 -286"/><text x="696" y="-270.4" fill="#000" font-family="monospace" font-size="8" text-anchor="start">&amp;#60;perspective-viewer</text><text x="696" y="-260.8" fill="#000" font-family="monospace" font-size="8" text-anchor="start">&amp;#160;&amp;#160;&amp;#160;view=&quot;grid&quot;&amp;#62;</text></g><g id="edge11" class="edge" data-name="view3-&gt;viewer3"><path fill="none" stroke="#000" stroke-dasharray="5 2" stroke-width="2" d="M652.0424,-264.9833C663.8018,-265.2423 675.9125,-265.5091 687.8393,-265.7718"/></g><g id="node12" class="node" data-name="view12"><polygon fill="#edebdf" stroke="transparent" points="652 -178.402 472 -178.402 472 -131.598 652 -131.598 652 -178.402"/><text x="480" y="-167" fill="#000" font-family="monospace" font-size="8" text-anchor="start">view({</text><text x="480" y="-157.4" fill="#000" font-family="monospace" font-size="8" text-anchor="start">&amp;#160;&amp;#160;&amp;#160;row_pivot: [&quot;Category&quot;]</text><text x="480" y="-147.8" fill="#000" font-family="monospace" font-size="8" text-anchor="start">&amp;#160;&amp;#160;&amp;#160;filter: [[&quot;State&quot;,&quot;==&quot;,&quot;Texas&quot;]]</text><text x="480" y="-138.2" fill="#000" font-family="monospace" font-size="8" text-anchor="start">})</text></g><g id="edge7" class="edge" data-name="table12-&gt;view12"><path fill="none" stroke="#e6e2da" d="M436.356,-155C444.7372,-155 454.0459,-155 463.6984,-155"/><polygon fill="#e6e2da" stroke="#e6e2da" points="463.875 -157.8 471.875 -155 463.875 -152.2 463.875 -157.8"/></g><g id="node17" class="node" data-name="viewer5"><polygon fill="#fff" stroke="#b3b3b3" points="890 -178.402 688 -178.402 688 -131.598 890 -131.598 890 -178.402"/><text x="696" y="-167" fill="#000" font-family="monospace" font-size="8" text-anchor="start">&amp;#60;perspective-viewer</text><text x="696" y="-157.4" fill="#000" font-family="monospace" font-size="8" text-anchor="start">&amp;#160;&amp;#160;&amp;#160;view=&quot;heatmap&quot;</text><text x="696" y="-147.8" fill="#000" font-family="monospace" font-size="8" text-anchor="start">&amp;#160;&amp;#160;&amp;#160;row-pivots=&apos;[&quot;State&quot;]</text><text x="696" y="-138.2" fill="#000" font-family="monospace" font-size="8" text-anchor="start">&amp;#160;&amp;#160;&amp;#160;column-pivots=&apos;[&quot;Segment&quot;]&apos;&amp;#62;</text></g><g id="edge13" class="edge" data-name="view12-&gt;viewer5"><path fill="none" stroke="#000" stroke-dasharray="5 2" stroke-width="2" d="M652.0424,-155C663.8018,-155 675.9125,-155 687.8393,-155"/></g></g></svg>