<svg xmlns="http://www.w3.org/2000/svg" xmlns:xlink="http://www.w3.org/1999/xlink" width="602pt" height="244" viewBox="0 0 602 183"><g id="graph0" class="graph" data-name="G" transform="translate(4,179) scale(1)"><polygon fill="#fff" stroke="transparent" points="-4 4 -4 -179 598 -179 598 4 -4 4"/><g id="clust1" class="cluster"><title>cluster_11</title><polygon fill="none" stroke="transparent" points="8 -8 8 -167 336 -167 336 -8 8 -8"/><text x="60.344" y="-134.4" fill="#4d4d4d" font-family="Helvetica,sans-Serif" font-size="14" text-anchor="middle">Python Server</text></g><g id="clust2" class="cluster"><title>cluster_thread_1</title><polygon fill="#91a4a8" stroke="transparent" points="18 -18 18 -116 326 -116 326 -18 18 -18"/><text x="96.292" y="-91" fill="#edebdf" font-family="Helvetica,sans-Serif" font-size="10" text-anchor="middle">PerspectiveManager - Thread 1</text></g><g id="clust3" class="cluster"><title>cluster_browser</title><polygon fill="#cadee1" stroke="#cadee1" points="344 -8 344 -162 586 -162 586 -8 344 -8"/><text x="377.665" y="-129.4" fill="#4d4d4d" font-family="Helvetica,sans-Serif" font-size="14" text-anchor="middle">Browser</text></g><g id="clust4" class="cluster"><title>cluster_41</title><polygon fill="#fff" stroke="transparent" points="354 -18 354 -111 576 -111 576 -18 354 -18"/><text x="373.846" y="-90.8" fill="#4d4d4d" font-family="monospace" font-size="8" text-anchor="middle">&amp;#60;html&amp;#62;</text></g><g id="node1" class="node" data-comment="table_thread_2-&gt;view_thread_2_2" data-name="table_thread_1"><polygon fill="#e6e2da" stroke="transparent" points="100 -69 28 -69 28 -33 100 -33 100 -69"/><text x="64" y="-48.6" fill="#000" font-family="monospace" font-size="8" text-anchor="middle">table(arrow)</text></g><g id="node2" class="node" data-comment="table_thread_2-&gt;view_thread_2_2" data-name="view_thread_1"><polygon fill="#edebdf" stroke="transparent" points="316 -74.402 136 -74.402 136 -27.598 316 -27.598 316 -74.402"/><text x="144" y="-63" fill="#000" font-family="monospace" font-size="8" text-anchor="start">view({</text><text x="144" y="-53.4" fill="#000" font-family="monospace" font-size="8" text-anchor="start">&amp;#160;&amp;#160;&amp;#160;row_pivots:&apos;[&quot;State&quot;]</text><text x="144" y="-43.8" fill="#000" font-family="monospace" font-size="8" text-anchor="start">&amp;#160;&amp;#160;&amp;#160;column_pivots:&apos;[&quot;Segment&quot;]&apos;</text><text x="144" y="-34.2" fill="#000" font-family="monospace" font-size="8" text-anchor="start">})</text></g><g id="edge1" class="edge" data-comment="table_thread_2-&gt;view_thread_2_2" data-name="table_thread_1-&gt;view_thread_1"><path fill="none" stroke="#edebdf" d="M100.356,-51C108.7372,-51 118.0459,-51 127.6984,-51"/><polygon fill="#edebdf" stroke="#edebdf" points="127.875 -53.8 135.875 -51 127.874 -48.2 127.875 -53.8"/></g><g id="node3" class="node" data-comment="table_thread_2-&gt;view_thread_2_2" data-name="viewer4"><polygon fill="#fff" stroke="#b3b3b3" points="566 -74.402 364 -74.402 364 -27.598 566 -27.598 566 -74.402"/><text x="372" y="-63" fill="#000" font-family="monospace" font-size="8" text-anchor="start">&amp;#60;perspective-viewer</text><text x="372" y="-53.4" fill="#000" font-family="monospace" font-size="8" text-anchor="start">&amp;#160;&amp;#160;&amp;#160;view=&quot;heatmap&quot;</text><text x="372" y="-43.8" fill="#000" font-family="monospace" font-size="8" text-anchor="start">&amp;#160;&amp;#160;&amp;#160;row-pivots=&apos;[&quot;State&quot;]</text><text x="372" y="-34.2" fill="#000" font-family="monospace" font-size="8" text-anchor="start">&amp;#160;&amp;#160;&amp;#160;column-pivots=&apos;[&quot;Segment&quot;]&apos;&amp;#62;</text></g><g id="edge2" class="edge" data-comment="table_thread_2-&gt;view_thread_2_2" data-name="view_thread_1-&gt;viewer4"><path fill="none" stroke="#d1a043" stroke-dasharray="5 2" stroke-width="2" d="M316.0151,-51C331.6292,-51 347.9596,-51 363.8468,-51"/></g></g></svg>